<svg width="42" height="42" viewBox="0 0 42 42" fill="none" xmlns="http://www.w3.org/2000/svg">
<path d="M2 21C2 12.0433 2 7.56497 4.78249 4.78249C7.56497 2 12.0433 2 21 2C29.9567 2 34.435 2 37.2175 4.78249C40 7.56497 40 12.0433 40 21C40 29.9567 40 34.435 37.2175 37.2175C34.435 40 29.9567 40 21 40C12.0433 40 7.56497 40 4.78249 37.2175C2 34.435 2 29.9567 2 21Z" stroke="black" stroke-width="3"/>
<path d="M12.5 13C12.5 12.1716 11.8284 11.5 11 11.5C10.1716 11.5 9.5 12.1716 9.5 13L11 13L12.5 13ZM9.5 29C9.5 29.8284 10.1716 30.5 11 30.5C11.8284 30.5 12.5 29.8284 12.5 29L11 29L9.5 29ZM20.3243 27.0783C20.9198 27.6542 21.8694 27.6383 22.4454 27.0428C23.0213 26.4473 23.0054 25.4976 22.4099 24.9217L21.3671 26L20.3243 27.0783ZM18.9388 23.6516L17.896 24.7299L17.896 24.7299L18.9388 23.6516ZM18.9388 18.3483L17.8961 17.2701L17.896 17.2701L18.9388 18.3483ZM22.4099 17.0783C23.0054 16.5024 23.0213 15.5527 22.4454 14.9572C21.8694 14.3617 20.9198 14.3458 20.3243 14.9217L21.3671 16L22.4099 17.0783ZM31 22.5C31.8284 22.5 32.5 21.8284 32.5 21C32.5 20.1716 31.8284 19.5 31 19.5L31 21L31 22.5ZM11 13L9.5 13L9.5 29L11 29L12.5 29L12.5 13L11 13ZM21.3671 26L22.4099 24.9217L19.9816 22.5734L18.9388 23.6516L17.896 24.7299L20.3243 27.0783L21.3671 26ZM18.9388 18.3483L19.9816 19.4266L22.4099 17.0783L21.3671 16L20.3243 14.9217L17.8961 17.2701L18.9388 18.3483ZM18.9388 23.6516L19.9816 22.5734C19.3045 21.9186 18.9081 21.5308 18.6623 21.2192C18.4421 20.9401 18.5 20.9128 18.5 21L17 21L15.5 21C15.5 21.8638 15.8811 22.5374 16.3071 23.0774C16.7075 23.585 17.2806 24.1347 17.896 24.7299L18.9388 23.6516ZM18.9388 18.3483L17.896 17.2701C17.2806 17.8653 16.7075 18.415 16.3071 18.9226C15.8811 19.4626 15.5 20.1362 15.5 21L17 21L18.5 21C18.5 21.0872 18.4421 21.0599 18.6623 20.7808C18.9081 20.4692 19.3045 20.0814 19.9816 19.4266L18.9388 18.3483ZM17 21L17 22.5L31 22.5L31 21L31 19.5L17 19.5L17 21Z" fill="black"/>
</svg>
